<?xml version="1.0" encoding="UTF-8" standalone="no"?>
<svg
   height="48px"
   viewBox="0 -960 960 960"
   width="48px"
   fill="#FFFFFF"
   version="1.1"
   id="svg1"
   sodipodi:docname="battery_charging_60.svg"
   inkscape:version="1.4.2 (ebf0e940, 2025-05-08)"
   xmlns:inkscape="http://www.inkscape.org/namespaces/inkscape"
   xmlns:sodipodi="http://sodipodi.sourceforge.net/DTD/sodipodi-0.dtd"
   xmlns="http://www.w3.org/2000/svg"
   xmlns:svg="http://www.w3.org/2000/svg">
  <defs
     id="defs1" />
  <sodipodi:namedview
     id="namedview1"
     pagecolor="#ffffff"
     bordercolor="#000000"
     borderopacity="0.25"
     inkscape:showpageshadow="2"
     inkscape:pageopacity="0.0"
     inkscape:pagecheckerboard="0"
     inkscape:deskcolor="#d1d1d1"
     inkscape:zoom="0.54166667"
     inkscape:cx="23.076923"
     inkscape:cy="23.076923"
     inkscape:window-width="1512"
     inkscape:window-height="916"
     inkscape:window-x="0"
     inkscape:window-y="38"
     inkscape:window-maximized="1"
     inkscape:current-layer="svg1" />
  <path
     d="m 930,-260 q 0,13 -8.5,21.5 -8.5,8.5 -21.5,8.5 H 224 q -13,0 -21.5,-8.5 Q 194,-247 194,-260 v -90 h -64 v -160 h 64 v -90 q 0,-13 8.5,-21.5 8.5,-8.5 21.5,-8.5 h 333 q 0,88 62.5,150.5 62.5,62.5 151.5,62.5 48,0 89,-19.5 41,-19.5 70,-52.5 z M 557,-290 V -570 H 254 v 280 z M 923,-610 H 810 v 80 L 618,-650 h 112 v -80 z"
     id="path1" />
</svg>
